<?xml version="1.0" encoding="UTF-8" standalone="no"?>
<!DOCTYPE svg PUBLIC "-//W3C//DTD SVG 1.1//EN"
 "http://www.w3.org/Graphics/SVG/1.1/DTD/svg11.dtd">
<!-- Generated by graphviz version 2.36.0 (20140111.2315)
 -->
<!-- Title: Disk Pages: 1 -->
<svg width="233pt" height="96pt"
 viewBox="0.00 0.00 233.00 96.00" xmlns="http://www.w3.org/2000/svg" xmlns:xlink="http://www.w3.org/1999/xlink">
<g id="graph0" class="graph" transform="scale(1 1) rotate(0) translate(4 92)">
<title>Disk</title>
<polygon fill="white" stroke="none" points="-4,4 -4,-92 229,-92 229,4 -4,4"/>
<!-- Node1 -->
<g id="node1" class="node"><title>Node1</title>
<polygon fill="#bfbfbf" stroke="black" points="101.5,-0.5 101.5,-19.5 138.5,-19.5 138.5,-0.5 101.5,-0.5"/>
<text text-anchor="middle" x="120" y="-7.5" font-family="Helvetica,sans-Serif" font-size="10.00">Disk</text>
</g>
<!-- Node2 -->
<g id="node2" class="node"><title>Node2</title>
<polygon fill="white" stroke="#bfbfbf" points="0,-68.5 0,-87.5 118,-87.5 118,-68.5 0,-68.5"/>
<text text-anchor="middle" x="59" y="-75.5" font-family="Helvetica,sans-Serif" font-size="10.00">Comparable&lt; Disk &gt;</text>
</g>
<!-- Node2&#45;&gt;Node1 -->
<g id="edge1" class="edge"><title>Node2&#45;&gt;Node1</title>
<path fill="none" stroke="midnightblue" d="M74.0836,-60.68C86.0093,-47.7768 102.201,-30.2575 111.829,-19.8411"/>
<polygon fill="midnightblue" stroke="midnightblue" points="71.1918,-58.6523 66.9747,-68.3717 76.3325,-63.4035 71.1918,-58.6523"/>
</g>
<!-- Node3 -->
<g id="node3" class="node"><title>Node3</title>
<polygon fill="white" stroke="#bfbfbf" points="136.5,-68.5 136.5,-87.5 225.5,-87.5 225.5,-68.5 136.5,-68.5"/>
<text text-anchor="middle" x="181" y="-75.5" font-family="Helvetica,sans-Serif" font-size="10.00">List&lt; Integer &gt;</text>
</g>
<!-- Node3&#45;&gt;Node1 -->
<g id="edge2" class="edge"><title>Node3&#45;&gt;Node1</title>
<path fill="none" stroke="#9a32cd" stroke-dasharray="5,2" d="M165.916,-60.68C153.991,-47.7768 137.799,-30.2575 128.171,-19.8411"/>
<polygon fill="#9a32cd" stroke="#9a32cd" points="163.668,-63.4035 173.025,-68.3717 168.808,-58.6523 163.668,-63.4035"/>
<text text-anchor="middle" x="175.5" y="-41.5" font-family="Helvetica,sans-Serif" font-size="10.00"> myFiles</text>
</g>
</g>
</svg>
