<?xml version="1.0" encoding="UTF-8" standalone="no"?>
<!DOCTYPE svg PUBLIC "-//W3C//DTD SVG 1.1//EN"
 "http://www.w3.org/Graphics/SVG/1.1/DTD/svg11.dtd">
<!-- Generated by graphviz version 2.36.0 (20140111.2315)
 -->
<!-- Title: Disk.add Pages: 1 -->
<svg width="384pt" height="28pt"
 viewBox="0.00 0.00 384.00 28.00" xmlns="http://www.w3.org/2000/svg" xmlns:xlink="http://www.w3.org/1999/xlink">
<g id="graph0" class="graph" transform="scale(1 1) rotate(0) translate(4 24)">
<title>Disk.add</title>
<polygon fill="white" stroke="none" points="-4,4 -4,-24 380,-24 380,4 -4,4"/>
<!-- Node1 -->
<g id="node1" class="node"><title>Node1</title>
<polygon fill="#bfbfbf" stroke="black" points="0,-0.5 0,-19.5 58,-19.5 58,-0.5 0,-0.5"/>
<text text-anchor="middle" x="29" y="-7.5" font-family="Helvetica,sans-Serif" font-size="10.00">Disk.add</text>
</g>
<!-- Node2 -->
<g id="node2" class="node"><title>Node2</title>
<g id="a_node2"><a xlink:href="../../d6/da2/class_algorithm.html#a7f5210588841dbcf4584a338acdb52fb" target="_top" xlink:title="Algorithm.addFiles">
<polygon fill="white" stroke="black" points="94,-0.5 94,-19.5 198,-19.5 198,-0.5 94,-0.5"/>
<text text-anchor="middle" x="146" y="-7.5" font-family="Helvetica,sans-Serif" font-size="10.00">Algorithm.addFiles</text>
</a>
</g>
</g>
<!-- Node1&#45;&gt;Node2 -->
<g id="edge1" class="edge"><title>Node1&#45;&gt;Node2</title>
<path fill="none" stroke="midnightblue" d="M68.1639,-10C76.3823,-10 85.1972,-10 93.8202,-10"/>
<polygon fill="midnightblue" stroke="midnightblue" points="68.1322,-6.5001 58.1322,-10 68.1321,-13.5001 68.1322,-6.5001"/>
</g>
<!-- Node3 -->
<g id="node3" class="node"><title>Node3</title>
<g id="a_node3"><a xlink:href="../../d6/da2/class_algorithm.html#a470ae90b16129d74d6a3d73f2355662e" target="_top" xlink:title="Algorithm.fitDisksAndPrint">
<polygon fill="white" stroke="black" points="234.5,-0.5 234.5,-19.5 375.5,-19.5 375.5,-0.5 234.5,-0.5"/>
<text text-anchor="middle" x="305" y="-7.5" font-family="Helvetica,sans-Serif" font-size="10.00">Algorithm.fitDisksAndPrint</text>
</a>
</g>
</g>
<!-- Node2&#45;&gt;Node3 -->
<g id="edge2" class="edge"><title>Node2&#45;&gt;Node3</title>
<path fill="none" stroke="midnightblue" d="M208.526,-10C216.956,-10 225.66,-10 234.223,-10"/>
<polygon fill="midnightblue" stroke="midnightblue" points="208.408,-6.5001 198.408,-10 208.408,-13.5001 208.408,-6.5001"/>
</g>
</g>
</svg>
