<?xml version="1.0" encoding="UTF-8" standalone="no"?>
<!DOCTYPE svg PUBLIC "-//W3C//DTD SVG 1.1//EN"
 "http://www.w3.org/Graphics/SVG/1.1/DTD/svg11.dtd">
<!-- Generated by graphviz version 2.36.0 (20140111.2315)
 -->
<!-- Title: Disk.freeSpace Pages: 1 -->
<svg width="416pt" height="104pt"
 viewBox="0.00 0.00 416.00 104.00" xmlns="http://www.w3.org/2000/svg" xmlns:xlink="http://www.w3.org/1999/xlink">
<g id="graph0" class="graph" transform="scale(1 1) rotate(0) translate(4 100)">
<title>Disk.freeSpace</title>
<polygon fill="white" stroke="none" points="-4,4 -4,-100 412,-100 412,4 -4,4"/>
<!-- Node1 -->
<g id="node1" class="node"><title>Node1</title>
<polygon fill="#bfbfbf" stroke="black" points="0.5,-38.5 0.5,-57.5 89.5,-57.5 89.5,-38.5 0.5,-38.5"/>
<text text-anchor="middle" x="45" y="-45.5" font-family="Helvetica,sans-Serif" font-size="10.00">Disk.freeSpace</text>
</g>
<!-- Node2 -->
<g id="node2" class="node"><title>Node2</title>
<g id="a_node2"><a xlink:href="../../d6/da2/class_algorithm.html#a7f5210588841dbcf4584a338acdb52fb" target="_top" xlink:title="Algorithm.addFiles">
<polygon fill="white" stroke="black" points="126,-76.5 126,-95.5 230,-95.5 230,-76.5 126,-76.5"/>
<text text-anchor="middle" x="178" y="-83.5" font-family="Helvetica,sans-Serif" font-size="10.00">Algorithm.addFiles</text>
</a>
</g>
</g>
<!-- Node1&#45;&gt;Node2 -->
<g id="edge1" class="edge"><title>Node1&#45;&gt;Node2</title>
<path fill="none" stroke="midnightblue" d="M88.7148,-60.3906C106.655,-65.5945 127.2,-71.5541 143.954,-76.4141"/>
<polygon fill="midnightblue" stroke="midnightblue" points="89.636,-57.0136 79.0568,-57.589 87.6858,-63.7364 89.636,-57.0136"/>
</g>
<!-- Node4 -->
<g id="node4" class="node"><title>Node4</title>
<g id="a_node4"><a xlink:href="../../d5/db6/class_disk.html#ad2f7beb2ad73fd643670811ed9c3462a" target="_top" xlink:title="Disk.compareTo">
<polygon fill="white" stroke="black" points="132,-38.5 132,-57.5 224,-57.5 224,-38.5 132,-38.5"/>
<text text-anchor="middle" x="178" y="-45.5" font-family="Helvetica,sans-Serif" font-size="10.00">Disk.compareTo</text>
</a>
</g>
</g>
<!-- Node1&#45;&gt;Node4 -->
<g id="edge3" class="edge"><title>Node1&#45;&gt;Node4</title>
<path fill="none" stroke="midnightblue" d="M99.6729,-48C110.335,-48 121.431,-48 131.777,-48"/>
<polygon fill="midnightblue" stroke="midnightblue" points="99.6211,-44.5001 89.6211,-48 99.6211,-51.5001 99.6211,-44.5001"/>
</g>
<!-- Node5 -->
<g id="node5" class="node"><title>Node5</title>
<g id="a_node5"><a xlink:href="../../d5/db6/class_disk.html#ad70272d3cf85896b10f80b058abd11ac" target="_top" xlink:title="Disk.toString">
<polygon fill="white" stroke="black" points="139,-0.5 139,-19.5 217,-19.5 217,-0.5 139,-0.5"/>
<text text-anchor="middle" x="178" y="-7.5" font-family="Helvetica,sans-Serif" font-size="10.00">Disk.toString</text>
</a>
</g>
</g>
<!-- Node1&#45;&gt;Node5 -->
<g id="edge4" class="edge"><title>Node1&#45;&gt;Node5</title>
<path fill="none" stroke="midnightblue" d="M88.7148,-35.6094C106.655,-30.4055 127.2,-24.4459 143.954,-19.5859"/>
<polygon fill="midnightblue" stroke="midnightblue" points="87.6858,-32.2636 79.0568,-38.411 89.636,-38.9864 87.6858,-32.2636"/>
</g>
<!-- Node3 -->
<g id="node3" class="node"><title>Node3</title>
<g id="a_node3"><a xlink:href="../../d6/da2/class_algorithm.html#a470ae90b16129d74d6a3d73f2355662e" target="_top" xlink:title="Algorithm.fitDisksAndPrint">
<polygon fill="white" stroke="black" points="266.5,-76.5 266.5,-95.5 407.5,-95.5 407.5,-76.5 266.5,-76.5"/>
<text text-anchor="middle" x="337" y="-83.5" font-family="Helvetica,sans-Serif" font-size="10.00">Algorithm.fitDisksAndPrint</text>
</a>
</g>
</g>
<!-- Node2&#45;&gt;Node3 -->
<g id="edge2" class="edge"><title>Node2&#45;&gt;Node3</title>
<path fill="none" stroke="midnightblue" d="M240.526,-86C248.956,-86 257.66,-86 266.223,-86"/>
<polygon fill="midnightblue" stroke="midnightblue" points="240.408,-82.5001 230.408,-86 240.408,-89.5001 240.408,-82.5001"/>
</g>
</g>
</svg>
