<?xml version="1.0" encoding="UTF-8" standalone="no"?>
<!DOCTYPE svg PUBLIC "-//W3C//DTD SVG 1.1//EN"
 "http://www.w3.org/Graphics/SVG/1.1/DTD/svg11.dtd">
<!-- Generated by graphviz version 2.36.0 (20140111.2315)
 -->
<!-- Title: Algorithm.addFiles Pages: 1 -->
<svg width="238pt" height="66pt"
 viewBox="0.00 0.00 238.00 66.00" xmlns="http://www.w3.org/2000/svg" xmlns:xlink="http://www.w3.org/1999/xlink">
<g id="graph0" class="graph" transform="scale(1 1) rotate(0) translate(4 62)">
<title>Algorithm.addFiles</title>
<polygon fill="white" stroke="none" points="-4,4 -4,-62 234,-62 234,4 -4,4"/>
<!-- Node1 -->
<g id="node1" class="node"><title>Node1</title>
<polygon fill="#bfbfbf" stroke="black" points="0,-19.5 0,-38.5 104,-38.5 104,-19.5 0,-19.5"/>
<text text-anchor="middle" x="52" y="-26.5" font-family="Helvetica,sans-Serif" font-size="10.00">Algorithm.addFiles</text>
</g>
<!-- Node2 -->
<g id="node2" class="node"><title>Node2</title>
<g id="a_node2"><a xlink:href="../../d5/db6/class_disk.html#abd5efb1f7faa590cce2ea9f1026e7d24" target="_top" xlink:title="Disk.add">
<polygon fill="white" stroke="black" points="156,-38.5 156,-57.5 214,-57.5 214,-38.5 156,-38.5"/>
<text text-anchor="middle" x="185" y="-45.5" font-family="Helvetica,sans-Serif" font-size="10.00">Disk.add</text>
</a>
</g>
</g>
<!-- Node1&#45;&gt;Node2 -->
<g id="edge1" class="edge"><title>Node1&#45;&gt;Node2</title>
<path fill="none" stroke="midnightblue" d="M104.023,-36.4003C117.968,-38.4229 132.835,-40.5791 145.92,-42.4769"/>
<polygon fill="midnightblue" stroke="midnightblue" points="145.581,-45.9644 155.98,-43.936 146.586,-39.0368 145.581,-45.9644"/>
</g>
<!-- Node3 -->
<g id="node3" class="node"><title>Node3</title>
<g id="a_node3"><a xlink:href="../../d5/db6/class_disk.html#a437a9964fb8ff91dc775855931afe9b7" target="_top" xlink:title="Disk.freeSpace">
<polygon fill="white" stroke="black" points="140.5,-0.5 140.5,-19.5 229.5,-19.5 229.5,-0.5 140.5,-0.5"/>
<text text-anchor="middle" x="185" y="-7.5" font-family="Helvetica,sans-Serif" font-size="10.00">Disk.freeSpace</text>
</a>
</g>
</g>
<!-- Node1&#45;&gt;Node3 -->
<g id="edge2" class="edge"><title>Node1&#45;&gt;Node3</title>
<path fill="none" stroke="midnightblue" d="M104.023,-21.5997C112.595,-20.3565 121.514,-19.0628 130.155,-17.8096"/>
<polygon fill="midnightblue" stroke="midnightblue" points="130.737,-21.2618 140.131,-16.3626 129.732,-14.3343 130.737,-21.2618"/>
</g>
</g>
</svg>
