<?xml version="1.0" encoding="UTF-8" standalone="no"?>
<!DOCTYPE svg PUBLIC "-//W3C//DTD SVG 1.1//EN"
 "http://www.w3.org/Graphics/SVG/1.1/DTD/svg11.dtd">
<!-- Generated by graphviz version 2.36.0 (20140111.2315)
 -->
<!-- Title: Algorithm.fitDisksAndPrint Pages: 1 -->
<svg width="444pt" height="123pt"
 viewBox="0.00 0.00 444.00 123.00" xmlns="http://www.w3.org/2000/svg" xmlns:xlink="http://www.w3.org/1999/xlink">
<g id="graph0" class="graph" transform="scale(1 1) rotate(0) translate(4 119)">
<title>Algorithm.fitDisksAndPrint</title>
<polygon fill="white" stroke="none" points="-4,4 -4,-119 440,-119 440,4 -4,4"/>
<!-- Node1 -->
<g id="node1" class="node"><title>Node1</title>
<polygon fill="#bfbfbf" stroke="black" points="0.5,-38.5 0.5,-57.5 141.5,-57.5 141.5,-38.5 0.5,-38.5"/>
<text text-anchor="middle" x="71" y="-45.5" font-family="Helvetica,sans-Serif" font-size="10.00">Algorithm.fitDisksAndPrint</text>
</g>
<!-- Node2 -->
<g id="node2" class="node"><title>Node2</title>
<g id="a_node2"><a xlink:href="../../d6/da2/class_algorithm.html#a7f5210588841dbcf4584a338acdb52fb" target="_top" xlink:title="Algorithm.addFiles">
<polygon fill="white" stroke="black" points="192,-76.5 192,-95.5 296,-95.5 296,-76.5 192,-76.5"/>
<text text-anchor="middle" x="244" y="-83.5" font-family="Helvetica,sans-Serif" font-size="10.00">Algorithm.addFiles</text>
</a>
</g>
</g>
<!-- Node1&#45;&gt;Node2 -->
<g id="edge1" class="edge"><title>Node1&#45;&gt;Node2</title>
<path fill="none" stroke="midnightblue" d="M115.151,-57.589C137.919,-62.6487 166.048,-68.8996 190.119,-74.2488"/>
<polygon fill="midnightblue" stroke="midnightblue" points="189.639,-77.7272 200.16,-76.4799 191.157,-70.8939 189.639,-77.7272"/>
</g>
<!-- Node5 -->
<g id="node5" class="node"><title>Node5</title>
<g id="a_node5"><a xlink:href="../../d6/da2/class_algorithm.html#a785872e8c40802dcf0ec3c3d73026b43" target="_top" xlink:title="Algorithm.organizeData">
<polygon fill="white" stroke="black" points="178.5,-38.5 178.5,-57.5 309.5,-57.5 309.5,-38.5 178.5,-38.5"/>
<text text-anchor="middle" x="244" y="-45.5" font-family="Helvetica,sans-Serif" font-size="10.00">Algorithm.organizeData</text>
</a>
</g>
</g>
<!-- Node1&#45;&gt;Node5 -->
<g id="edge4" class="edge"><title>Node1&#45;&gt;Node5</title>
<path fill="none" stroke="midnightblue" d="M141.552,-48C150.42,-48 159.526,-48 168.468,-48"/>
<polygon fill="midnightblue" stroke="midnightblue" points="168.474,-51.5001 178.474,-48 168.474,-44.5001 168.474,-51.5001"/>
</g>
<!-- Node6 -->
<g id="node6" class="node"><title>Node6</title>
<g id="a_node6"><a xlink:href="../../d6/da2/class_algorithm.html#aab746f0039271c1d00f12a2d809a72bb" target="_top" xlink:title="Algorithm.printResults">
<polygon fill="white" stroke="black" points="183,-0.5 183,-19.5 305,-19.5 305,-0.5 183,-0.5"/>
<text text-anchor="middle" x="244" y="-7.5" font-family="Helvetica,sans-Serif" font-size="10.00">Algorithm.printResults</text>
</a>
</g>
</g>
<!-- Node1&#45;&gt;Node6 -->
<g id="edge5" class="edge"><title>Node1&#45;&gt;Node6</title>
<path fill="none" stroke="midnightblue" d="M115.151,-38.411C137.919,-33.3513 166.048,-27.1004 190.119,-21.7512"/>
<polygon fill="midnightblue" stroke="midnightblue" points="191.157,-25.1061 200.16,-19.5201 189.639,-18.2728 191.157,-25.1061"/>
</g>
<!-- Node3 -->
<g id="node3" class="node"><title>Node3</title>
<g id="a_node3"><a xlink:href="../../d5/db6/class_disk.html#abd5efb1f7faa590cce2ea9f1026e7d24" target="_top" xlink:title="Disk.add">
<polygon fill="white" stroke="black" points="362,-95.5 362,-114.5 420,-114.5 420,-95.5 362,-95.5"/>
<text text-anchor="middle" x="391" y="-102.5" font-family="Helvetica,sans-Serif" font-size="10.00">Disk.add</text>
</a>
</g>
</g>
<!-- Node2&#45;&gt;Node3 -->
<g id="edge2" class="edge"><title>Node2&#45;&gt;Node3</title>
<path fill="none" stroke="midnightblue" d="M296.122,-92.6987C314.352,-95.0876 334.564,-97.736 351.55,-99.9617"/>
<polygon fill="midnightblue" stroke="midnightblue" points="351.292,-103.458 361.662,-101.287 352.201,-96.5171 351.292,-103.458"/>
</g>
<!-- Node4 -->
<g id="node4" class="node"><title>Node4</title>
<g id="a_node4"><a xlink:href="../../d5/db6/class_disk.html#a437a9964fb8ff91dc775855931afe9b7" target="_top" xlink:title="Disk.freeSpace">
<polygon fill="white" stroke="black" points="346.5,-57.5 346.5,-76.5 435.5,-76.5 435.5,-57.5 346.5,-57.5"/>
<text text-anchor="middle" x="391" y="-64.5" font-family="Helvetica,sans-Serif" font-size="10.00">Disk.freeSpace</text>
</a>
</g>
</g>
<!-- Node2&#45;&gt;Node4 -->
<g id="edge3" class="edge"><title>Node2&#45;&gt;Node4</title>
<path fill="none" stroke="midnightblue" d="M296.122,-79.3013C308.989,-77.6152 322.843,-75.7999 335.853,-74.0951"/>
<polygon fill="midnightblue" stroke="midnightblue" points="336.61,-77.5259 346.071,-72.7562 335.701,-70.5852 336.61,-77.5259"/>
</g>
</g>
</svg>
