<?xml version="1.0" encoding="UTF-8" standalone="no"?>
<!DOCTYPE svg PUBLIC "-//W3C//DTD SVG 1.1//EN"
 "http://www.w3.org/Graphics/SVG/1.1/DTD/svg11.dtd">
<!-- Generated by graphviz version 2.36.0 (20140111.2315)
 -->
<!-- Title: Bins.main Pages: 1 -->
<svg width="194pt" height="66pt"
 viewBox="0.00 0.00 194.00 66.00" xmlns="http://www.w3.org/2000/svg" xmlns:xlink="http://www.w3.org/1999/xlink">
<g id="graph0" class="graph" transform="scale(1 1) rotate(0) translate(4 62)">
<title>Bins.main</title>
<polygon fill="white" stroke="none" points="-4,4 -4,-62 190,-62 190,4 -4,4"/>
<!-- Node1 -->
<g id="node1" class="node"><title>Node1</title>
<polygon fill="#bfbfbf" stroke="black" points="0,-19.5 0,-38.5 64,-38.5 64,-19.5 0,-19.5"/>
<text text-anchor="middle" x="32" y="-26.5" font-family="Helvetica,sans-Serif" font-size="10.00">Bins.main</text>
</g>
<!-- Node2 -->
<g id="node2" class="node"><title>Node2</title>
<g id="a_node2"><a xlink:href="../../df/d31/class_bins.html#a0bc4f9ff07aa20d847bca90616b599ff" target="_top" xlink:title="Bins.getTotal">
<polygon fill="white" stroke="black" points="104.5,-38.5 104.5,-57.5 181.5,-57.5 181.5,-38.5 104.5,-38.5"/>
<text text-anchor="middle" x="143" y="-45.5" font-family="Helvetica,sans-Serif" font-size="10.00">Bins.getTotal</text>
</a>
</g>
</g>
<!-- Node1&#45;&gt;Node2 -->
<g id="edge1" class="edge"><title>Node1&#45;&gt;Node2</title>
<path fill="none" stroke="midnightblue" d="M64.235,-34.4446C73.577,-36.0731 84.0417,-37.8972 94.1919,-39.6665"/>
<polygon fill="midnightblue" stroke="midnightblue" points="93.7317,-43.139 104.184,-41.4083 94.9338,-36.2429 93.7317,-43.139"/>
</g>
<!-- Node3 -->
<g id="node3" class="node"><title>Node3</title>
<g id="a_node3"><a xlink:href="../../df/d31/class_bins.html#af7daa96a6817817b5d51ede327fc64f1" target="_top" xlink:title="Bins.readData">
<polygon fill="white" stroke="black" points="100.5,-0.5 100.5,-19.5 185.5,-19.5 185.5,-0.5 100.5,-0.5"/>
<text text-anchor="middle" x="143" y="-7.5" font-family="Helvetica,sans-Serif" font-size="10.00">Bins.readData</text>
</a>
</g>
</g>
<!-- Node1&#45;&gt;Node3 -->
<g id="edge2" class="edge"><title>Node1&#45;&gt;Node3</title>
<path fill="none" stroke="midnightblue" d="M64.235,-23.5554C72.3709,-22.1372 81.3583,-20.5706 90.248,-19.021"/>
<polygon fill="midnightblue" stroke="midnightblue" points="90.9422,-22.4528 100.193,-17.2875 89.7401,-15.5568 90.9422,-22.4528"/>
</g>
</g>
</svg>
