<?xml version="1.0" encoding="UTF-8" standalone="no"?>
<!DOCTYPE svg PUBLIC "-//W3C//DTD SVG 1.1//EN"
 "http://www.w3.org/Graphics/SVG/1.1/DTD/svg11.dtd">
<!-- Generated by graphviz version 2.36.0 (20140111.2315)
 -->
<!-- Title: Graphical Class Hierarchy Pages: 1 -->
<svg width="262pt" height="66pt"
 viewBox="0.00 0.00 262.00 66.00" xmlns="http://www.w3.org/2000/svg" xmlns:xlink="http://www.w3.org/1999/xlink">
<g id="graph0" class="graph" transform="scale(1 1) rotate(0) translate(4 62)">
<title>Graphical Class Hierarchy</title>
<polygon fill="white" stroke="none" points="-4,4 -4,-62 258,-62 258,4 -4,4"/>
<!-- Node1 -->
<g id="node1" class="node"><title>Node1</title>
<g id="a_node1"><a xlink:href="d6/da2/class_algorithm.html" target="_top" xlink:title="Algorithm">
<polygon fill="white" stroke="black" points="0.5,-19.5 0.5,-38.5 63.5,-38.5 63.5,-19.5 0.5,-19.5"/>
<text text-anchor="middle" x="32" y="-26.5" font-family="Helvetica,sans-Serif" font-size="10.00">Algorithm</text>
</a>
</g>
</g>
<!-- Node2 -->
<g id="node2" class="node"><title>Node2</title>
<g id="a_node2"><a xlink:href="d7/d03/class_worst_fit_algorithm.html" target="_top" xlink:title="WorstFitAlgorithm">
<polygon fill="white" stroke="black" points="127,-38.5 127,-57.5 227,-57.5 227,-38.5 127,-38.5"/>
<text text-anchor="middle" x="177" y="-45.5" font-family="Helvetica,sans-Serif" font-size="10.00">WorstFitAlgorithm</text>
</a>
</g>
</g>
<!-- Node1&#45;&gt;Node2 -->
<g id="edge1" class="edge"><title>Node1&#45;&gt;Node2</title>
<path fill="none" stroke="midnightblue" d="M73.5937,-34.3936C90.1563,-36.5942 109.459,-39.1589 126.813,-41.4646"/>
<polygon fill="midnightblue" stroke="midnightblue" points="74.051,-30.9237 63.6771,-33.076 73.129,-37.8627 74.051,-30.9237"/>
</g>
<!-- Node3 -->
<g id="node3" class="node"><title>Node3</title>
<g id="a_node3"><a xlink:href="db/d96/class_worst_fit_decreasing_algorithm.html" target="_top" xlink:title="WorstFitDecreasingAlgorithm">
<polygon fill="white" stroke="black" points="100,-0.5 100,-19.5 254,-19.5 254,-0.5 100,-0.5"/>
<text text-anchor="middle" x="177" y="-7.5" font-family="Helvetica,sans-Serif" font-size="10.00">WorstFitDecreasingAlgorithm</text>
</a>
</g>
</g>
<!-- Node1&#45;&gt;Node3 -->
<g id="edge2" class="edge"><title>Node1&#45;&gt;Node3</title>
<path fill="none" stroke="midnightblue" d="M73.669,-23.5964C83.247,-22.3238 93.738,-20.9299 104.237,-19.535"/>
<polygon fill="midnightblue" stroke="midnightblue" points="73.129,-20.1373 63.6771,-24.924 74.051,-27.0764 73.129,-20.1373"/>
</g>
</g>
</svg>
