<?xml version="1.0" encoding="UTF-8" standalone="no"?>
<!DOCTYPE svg PUBLIC "-//W3C//DTD SVG 1.1//EN"
 "http://www.w3.org/Graphics/SVG/1.1/DTD/svg11.dtd">
<!-- Generated by graphviz version 2.36.0 (20140111.2315)
 -->
<!-- Title: Algorithm Pages: 1 -->
<svg width="280pt" height="84pt"
 viewBox="0.00 0.00 280.00 84.00" xmlns="http://www.w3.org/2000/svg" xmlns:xlink="http://www.w3.org/1999/xlink">
<g id="graph0" class="graph" transform="scale(1 1) rotate(0) translate(4 80)">
<title>Algorithm</title>
<polygon fill="white" stroke="none" points="-4,4 -4,-80 276,-80 276,4 -4,4"/>
<!-- Node1 -->
<g id="node1" class="node"><title>Node1</title>
<polygon fill="#bfbfbf" stroke="black" points="90.5,-56.5 90.5,-75.5 153.5,-75.5 153.5,-56.5 90.5,-56.5"/>
<text text-anchor="middle" x="122" y="-63.5" font-family="Helvetica,sans-Serif" font-size="10.00">Algorithm</text>
</g>
<!-- Node2 -->
<g id="node2" class="node"><title>Node2</title>
<g id="a_node2"><a xlink:href="../../d7/d03/class_worst_fit_algorithm.html" target="_top" xlink:title="WorstFitAlgorithm">
<polygon fill="white" stroke="black" points="0,-0.5 0,-19.5 100,-19.5 100,-0.5 0,-0.5"/>
<text text-anchor="middle" x="50" y="-7.5" font-family="Helvetica,sans-Serif" font-size="10.00">WorstFitAlgorithm</text>
</a>
</g>
</g>
<!-- Node1&#45;&gt;Node2 -->
<g id="edge1" class="edge"><title>Node1&#45;&gt;Node2</title>
<path fill="none" stroke="midnightblue" d="M102.134,-50.1008C89.1765,-40.3824 72.7026,-28.0269 61.7785,-19.8339"/>
<polygon fill="midnightblue" stroke="midnightblue" points="100.332,-53.1239 110.432,-56.324 104.532,-47.5239 100.332,-53.1239"/>
</g>
<!-- Node3 -->
<g id="node3" class="node"><title>Node3</title>
<g id="a_node3"><a xlink:href="../../db/d96/class_worst_fit_decreasing_algorithm.html" target="_top" xlink:title="WorstFitDecreasingAlgorithm">
<polygon fill="white" stroke="black" points="118,-0.5 118,-19.5 272,-19.5 272,-0.5 118,-0.5"/>
<text text-anchor="middle" x="195" y="-7.5" font-family="Helvetica,sans-Serif" font-size="10.00">WorstFitDecreasingAlgorithm</text>
</a>
</g>
</g>
<!-- Node1&#45;&gt;Node3 -->
<g id="edge2" class="edge"><title>Node1&#45;&gt;Node3</title>
<path fill="none" stroke="midnightblue" d="M142.142,-50.1008C155.279,-40.3824 171.982,-28.0269 183.058,-19.8339"/>
<polygon fill="midnightblue" stroke="midnightblue" points="139.687,-47.5631 133.729,-56.324 143.85,-53.1907 139.687,-47.5631"/>
</g>
</g>
</svg>
